<svg id="Layer_1" data-name="Layer 1" xmlns="http://www.w3.org/2000/svg" viewBox="0 0 400 400"><defs><style>.cls-1{fill:#478fcc;}.cls-2{fill:#fff;}.cls-3{fill:#fdfefe;}</style></defs><rect class="cls-1" width="400" height="400" rx="25"/><path class="cls-2" d="M200,249.1H56.11c-16,0-28.7-10.27-31.94-25.83a22.61,22.61,0,0,1-.35-4.66q0-18,0-36A31.16,31.16,0,0,1,50,151.52a38.29,38.29,0,0,1,6.51-.63q143.59,0,287.2,0c14.75,0,27.28,9.11,31.33,22.73a26.22,26.22,0,0,1,1.15,7.68c0,12.3,0,24.61,0,36.91,0,16.68-14.14,30.8-31,30.84q-45.51.09-91,0Zm.25-87q-72.14,0-144.26,0c-12.13,0-20.85,8.87-20.89,21,0,11.58-.12,23.15,0,34.73a19.64,19.64,0,0,0,9.12,16.86c4.66,3.13,9.91,3.65,15.25,3.65q138.63,0,277.25,0c3,0,6-.06,9-.36,11.16-1.09,19-9.41,19-20.55,0-11.58,0-23.15,0-34.73a21.25,21.25,0,0,0-1-6.44c-2.68-8.66-10.47-14.17-20.27-14.17Q271.94,162,200.27,162.07Z"/><path class="cls-2" d="M328.26,225.92c-4.88,0-9.77-.08-14.66,0-2.43.06-3.46-.89-3.27-3.3a29.5,29.5,0,0,0,0-3.12c0-1.7.82-2.43,2.49-2.43q15.75,0,31.5,0c1.66,0,2.54.69,2.51,2.41a20.12,20.12,0,0,0,0,2.8c.3,2.76-1,3.7-3.64,3.64C338.25,225.84,333.25,225.92,328.26,225.92Z"/><path class="cls-3" d="M96.42,207.12l-3.24,5.69-13.43-8.89,1.1,16.34H74l1-16.34-13.71,8.89-3-5.59L73,200l-14.67-7.36,3.29-5.59,13.53,9L74,179.74h6.84l-1.2,16.34L93.18,187l3.34,5.88L81.8,200.1Z"/><path class="cls-3" d="M160.24,207.12,157,212.81l-13.43-8.89,1.1,16.34h-6.84l1.05-16.34-13.71,8.89-3-5.59L136.82,200l-14.67-7.36,3.3-5.59,13.52,9-1.15-16.34h6.84l-1.2,16.34L157,187l3.34,5.88-14.72,7.27Z"/><path class="cls-3" d="M224.05,207.12l-3.25,5.69-13.43-8.89,1.1,16.34h-6.83l1.05-16.34L189,212.81l-3-5.59L200.63,200,186,192.64l3.3-5.59,13.52,9-1.14-16.34h6.83l-1.2,16.34L220.8,187l3.34,5.88-14.71,7.27Z"/><path class="cls-3" d="M287.86,207.12l-3.25,5.69-13.43-8.89,1.1,16.34h-6.83l1.05-16.34-13.72,8.89-3-5.59L264.44,200l-14.67-7.36,3.3-5.59,13.53,9-1.15-16.34h6.83l-1.19,16.34L284.61,187l3.35,5.88-14.72,7.27Z"/></svg>