<?xml version="1.0" encoding="utf-8"?>
<!-- Generator: Adobe Illustrator 24.0.2, SVG Export Plug-In . SVG Version: 6.00 Build 0)  -->
<svg version="1.1" id="Layer_1" xmlns="http://www.w3.org/2000/svg" xmlns:xlink="http://www.w3.org/1999/xlink" x="0px" y="0px"
	 viewBox="0 0 104.58 104.54" style="enable-background:new 0 0 104.58 104.54;" xml:space="preserve">
<style type="text/css">
	.st0{fill:#848484;}
</style>
<path class="st0" d="M64.75,55.11l38.5,38.51c1.51,1.51,1.51,3.97,0,5.48l-4.17,4.16c-1.51,1.51-3.97,1.51-5.48,0l-38.5-38.5
	c-1.51-1.51-3.97-1.51-5.48,0L10.98,103.4c-1.51,1.51-3.97,1.51-5.48,0l-4.17-4.17c-1.51-1.51-1.51-3.97,0-5.48l38.65-38.65
	c1.51-1.51,1.51-3.97,0-5.48L1.14,10.79c-1.51-1.51-1.51-3.97,0-5.48L5.3,1.14c1.51-1.51,3.97-1.51,5.48,0l38.84,38.84
	c1.51,1.51,3.97,1.51,5.48,0L93.79,1.29c1.51-1.51,3.97-1.51,5.48,0l4.17,4.17c1.51,1.51,1.51,3.97,0,5.48L64.75,49.62
	C63.24,51.14,63.24,53.59,64.75,55.11z"/>
</svg>
