<svg id="Layer_1" data-name="Layer 1" xmlns="http://www.w3.org/2000/svg" viewBox="0 0 400 400"><defs><style>.cls-1{fill:#478fcc;}.cls-2{fill:#fff;}</style></defs><rect class="cls-1" width="400" height="400" rx="25"/><path class="cls-2" d="M111.82,234.39h-11l-9-23.89H55.61l-8.5,23.89H36l32.68-85.21H79ZM88.47,201.53,75.1,165.22a34.78,34.78,0,0,1-1.31-5.7h-.24a31.74,31.74,0,0,1-1.36,5.7L58.94,201.53Z"/><path class="cls-2" d="M132.8,234.39h-9.75V144.31h9.75Z"/><path class="cls-2" d="M180.75,233.79a18.77,18.77,0,0,1-9.09,1.9q-16,0-16-17.82v-36H145.21v-8.32h10.46V158.69l9.75-3.15v18h15.33v8.32H165.42v34.28q0,6.13,2.08,8.74t6.89,2.61a10.22,10.22,0,0,0,6.36-2Z"/><path class="cls-2" d="M333.91,232.6H289.7V147.4h10v76.17h34.22Z"/><path class="cls-2" d="M256.21,201.07H237.26V220H231v-18.9h-18.9v-6.28H231v-18.9h6.24v18.9h18.95Z"/></svg>