<svg id="Layer_1" data-name="Layer 1" xmlns="http://www.w3.org/2000/svg" viewBox="0 0 400 400"><defs><style>.cls-1{fill:#478fcc;}.cls-2{fill:#fff;}</style></defs><rect class="cls-1" width="400" height="400" rx="25"/><path class="cls-2" d="M256.33,323.82H217.27c-13,0-25.86-.14-38.78-.21-5.71,0-11.41-.08-17.12,0-1.83,0-2.21-.88-2.17-2.48.13-4.31-.23-8.66.27-12.92.65-5.6-1.74-9.8-5-13.94-4.08-5.3-8-10.75-11.94-16.13-6.18-8.45-12.28-17-18.49-25.39-5.31-7.22-10.75-14.35-16.09-21.56-2.86-3.88-6.19-7.57-8.2-11.85-4.09-8.66-4.06-17.62-.43-26.64,3.77-9.36,10.51-15.47,19.66-19.08,8.56-3.39,17.08-2.16,25.49.82l3.85,1.34c.14-1.37.37-2.74.42-4.13.2-5.35.5-10.72.47-16.07-.05-8-.42-16-.53-24.06-.09-7.56-.46-15.16.08-22.69.74-9.71,3.73-18.68,11.7-25.17a31.43,31.43,0,0,1,24.37-7.22c12.25,1.44,20.74,8.21,25.87,19.2a30.85,30.85,0,0,1,2.63,14.15c-.21,7.44-.07,15-.15,22.47,0,2.26.41,3.23,3.19,3.37,9,.46,17.1,3.31,23.28,10.26,1.25,1.4,2.39,1.65,4.34,1.3,5.23-.89,10.45-.83,15.46,1.72,4.68,2.35,9,5,12.28,9.26a5.34,5.34,0,0,0,3.64,1.49c13.68.61,25.45,9.93,27.3,23.93.65,4.81.46,9.73.51,14.6.08,6.78,0,13.56,0,20.34,0,5.58-.11,11.15-.14,16.73,0,3.39.14,6.77.08,10.16a57.22,57.22,0,0,1-3,18.7c-1.75,4.86-3,9.87-4.79,14.73A84.74,84.74,0,0,1,290,291.69a31.88,31.88,0,0,0-4,16.41c0,4.13-.29,8.23-.15,12.34.1,2.65-1,3.31-3.4,3.31-8.72-.08-17.44,0-26.17,0ZM264,305.58c3.27.08,3.94-.33,3.85-3.7a24.4,24.4,0,0,1,1.91-10.29c4-9.46,8.19-18.88,11.78-28.5a59.59,59.59,0,0,0,4-22.21c-.18-9.61,0-19.22,0-28.82,0-7.93.06-15.86-.05-23.78-.09-6.88-5-11.4-11.79-11-4.49.24-8.79,6-8.61,11.52.06,2,.08,4.05-.05,6.07-.11,1.75-.91,3.2-2.94,3-1.85-.21-2.71-1.53-2.69-3.36s.16-3.7.12-5.54c-.11-5.45,0-10.92-.53-16.32s-5.22-8.56-11.36-8.28c-4.48.24-9.27,5.07-9.31,9.66-.05,5.91.11,11.83.12,17.74a11.38,11.38,0,0,1-.53,3.62,3.65,3.65,0,0,1-4.53,2.49,3.7,3.7,0,0,1-1.75-1.12,7.18,7.18,0,0,1-1.33-4.1c-.12-8.81-.07-17.64-.06-26.47,0-7.81-7.79-14-15.52-12.56-7.26,1.3-12,7-12.05,14.57-.07,8.2.07,16.4.18,24.6,0,2.94-1.48,5.16-3.71,5.18s-3.61-1.77-3.61-4.84q0-21.19,0-42.43c0-14.23.08-28.46,0-42.68-.07-11.09-12.36-18.11-21.64-12.27a13.85,13.85,0,0,0-7,12.74c.2,12.49-.14,25-.14,37.47,0,10.17.18,20.34.22,30.51v26.47c0,3.69.12,7.39-.22,11.06a4.94,4.94,0,0,1-2.34,3.35c-.59.32-2.35-.83-3.17-1.73-2.57-2.79-4.87-5.79-7.38-8.65-3.93-4.4-7.84-8.82-12-13-5.32-5.45-11.69-5.72-17.81-3.36-9.28,3.56-13,17.37-5.88,25.3,2.29,2.56,4.48,5.23,6.53,8,8.9,11.95,17.8,23.9,26.57,35.95,7.78,10.68,15.35,21.5,23.05,32.26,2.24,3.11,2.69,6.62,2.68,10.3,0,3,.24,3.3,3.26,3.3"/><path class="cls-2" d="M234.37,245.59v13c0,3.29-1.87,5.41-4.75,5.44-2.56,0-4.55-2.34-4.55-5.39V232.52a7.55,7.55,0,0,1,.75-3.55,4.44,4.44,0,0,1,5.22-2.33,5.25,5.25,0,0,1,3.28,5c.06,4.65,0,9.28,0,13.92Z"/><path class="cls-2" d="M211.06,245.73v13.46a5.06,5.06,0,0,1-4.65,5c-2,.11-4.53-2.27-4.55-4.59-.07-5.6,0-11.2,0-16.8V232c0-3.26,1.79-5.42,4.48-5.45,2.84,0,4.63,2.08,4.63,5.53v13.7Z"/><path class="cls-2" d="M247.29,245.18V231.44c0-2.6,2.16-5,4.51-5,2.19,0,4.44,2.45,4.45,4.89v27.25c0,1.77-.25,3.4-1.87,4.47-1.33.89-2.73,1.6-4.31.69s-2.84-2-2.81-4.15C247.33,254.78,247.29,250,247.29,245.18Z"/></svg>