<svg id="Layer_1" data-name="Layer 1" xmlns="http://www.w3.org/2000/svg" viewBox="0 0 400 400"><defs><style>.cls-1{fill:#478fcc;}.cls-2{fill:#fff;}</style></defs><rect class="cls-1" width="400" height="400" rx="25"/><path class="cls-2" d="M350.49,301.25c-4.16,14.79-14.32,23.3-28.6,23.31q-106.39.07-212.79,0c-16.18,0-28.39-12.2-28.41-28.34q-.1-80.67,0-161.34c0-16,12.23-28.26,28.15-28.27q106.71-.1,213.44,0c13.36,0,24.1,8.63,27.37,21.53l.45,1.76.4-.07m-249.25,39V295.12c0,6.27,2.59,8.86,8.85,8.86H320.63c6.71,0,9.19-2.48,9.19-9.19q0-61.2,0-122.4v-3.54ZM247.9,137.78a11.61,11.61,0,1,0-11.73,11.5A11.87,11.87,0,0,0,247.9,137.78Zm30-11.75a11.63,11.63,0,1,0,11.56,11.68A11.87,11.87,0,0,0,277.87,126ZM331,137.55a11.6,11.6,0,1,0-11.51,11.72A11.84,11.84,0,0,0,331,137.55Z"/><path class="cls-2" d="M70.1,292c-12-2.55-20.57-14-20.58-27.25q0-51.62,0-103.23,0-28.25,0-56.49c0-17.66,11.87-29.58,29.46-29.59H279.76c13.58,0,24.6,8.06,27.75,20.59H107.17c-14,0-25.2,5.29-32.43,17.69-3.52,6-4.67,12.67-4.67,19.62q.06,75.32,0,150.62Z"/></svg>